<?xml version="1.0" encoding="utf-8"?>
<!-- Generator: Adobe Illustrator 16.0.4, SVG Export Plug-In . SVG Version: 6.00 Build 0)  -->
<!DOCTYPE svg PUBLIC "-//W3C//DTD SVG 1.1//EN" "http://www.w3.org/Graphics/SVG/1.1/DTD/svg11.dtd">
<svg version="1.1" id="Layer_1" xmlns="http://www.w3.org/2000/svg" xmlns:xlink="http://www.w3.org/1999/xlink" x="0px" y="0px"
	 width="277.5px" height="79.5px" viewBox="0 0 277.5 79.5" enable-background="new 0 0 277.5 79.5" xml:space="preserve">
<g>
	<path fill="#795B31" d="M138.75,78C64.353,78,1.5,60.483,1.5,39.75C1.5,19.016,64.353,1.5,138.75,1.5
		C213.147,1.5,276,19.016,276,39.75C276,60.483,213.147,78,138.75,78z"/>
	<path fill="#CCB699" d="M138.75,3c36.79,0,71.34,4.094,97.285,11.526c24.085,6.9,38.465,16.33,38.465,25.224
		c0,8.894-14.38,18.323-38.465,25.224C210.09,72.406,175.54,76.5,138.75,76.5s-71.34-4.094-97.285-11.526
		C17.379,58.073,3,48.644,3,39.75c0-8.894,14.379-18.323,38.465-25.224C67.41,7.094,101.96,3,138.75,3 M138.75,0
		C62.12,0,0,17.797,0,39.75S62.12,79.5,138.75,79.5S277.5,61.703,277.5,39.75S215.38,0,138.75,0L138.75,0z"/>
</g>
<g>
	<path fill="#CDB79A" d="M54.847,48.432h-4.681v-13.5h-4.231v-3.828h13.131v3.828h-4.219V48.432z"/>
	<path fill="#CDB79A" d="M76.393,48.432h-4.705v-7.064h-5.44v7.064h-4.705V31.104h4.705v6.424h5.44v-6.424h4.705V48.432z"/>
	<path fill="#CDB79A" d="M90.425,48.432H80.138V31.104h10.287v3.758h-5.606v2.726h5.191v3.756h-5.191v3.271h5.606V48.432z"/>
	<path fill="#CDB79A" d="M99.764,31.104h6.044c2.354,0,4.103,0.35,5.244,1.049s1.712,1.788,1.712,3.266
		c0,0.972-0.249,1.802-0.747,2.488c-0.498,0.688-1.154,1.131-1.967,1.328v0.118c1.074,0.284,1.853,0.759,2.335,1.422
		c0.481,0.664,0.723,1.525,0.723,2.584c0,1.572-0.591,2.811-1.771,3.715c-1.182,0.904-2.792,1.357-4.83,1.357h-6.744V31.104z
		 M104.445,37.753h1.411c0.671,0,1.191-0.139,1.559-0.415c0.367-0.276,0.551-0.688,0.551-1.232c0-0.972-0.735-1.458-2.204-1.458
		h-1.316V37.753z M104.445,41.178v3.639h1.647c1.462,0,2.193-0.615,2.193-1.848c0-0.578-0.196-1.02-0.587-1.328
		s-0.958-0.463-1.701-0.463H104.445z"/>
	<path fill="#CDB79A" d="M120.8,42.127v6.305h-4.681V31.104h5.677c4.709,0,7.063,1.707,7.063,5.12c0,2.007-0.979,3.56-2.939,4.659
		l5.049,7.549h-5.31l-3.674-6.305H120.8z M120.8,38.607h0.877c1.635,0,2.453-0.724,2.453-2.169c0-1.193-0.802-1.79-2.406-1.79H120.8
		V38.607z"/>
	<path fill="#CDB79A" d="M148.759,39.745c0,2.916-0.716,5.13-2.146,6.648s-3.523,2.275-6.281,2.275
		c-2.718,0-4.802-0.762-6.252-2.287s-2.175-3.744-2.175-6.661c0-2.884,0.721-5.086,2.163-6.607c1.442-1.521,3.538-2.281,6.287-2.281
		c2.758,0,4.848,0.755,6.27,2.264C148.047,34.605,148.759,36.821,148.759,39.745z M136.835,39.745c0,3.349,1.166,5.025,3.497,5.025
		c1.186,0,2.064-0.406,2.637-1.221s0.859-2.082,0.859-3.804c0-1.73-0.291-3.009-0.871-3.834c-0.58-0.826-1.447-1.239-2.602-1.239
		C138.009,34.671,136.835,36.363,136.835,39.745z"/>
	<path fill="#CDB79A" d="M151.887,48.432V31.104h4.682V44.65h6.673v3.781H151.887z"/>
	<path fill="#CDB79A" d="M182.228,39.745c0,2.916-0.716,5.13-2.146,6.648c-1.431,1.518-3.524,2.275-6.281,2.275
		c-2.718,0-4.802-0.762-6.252-2.287s-2.175-3.744-2.175-6.661c0-2.884,0.721-5.086,2.163-6.607c1.441-1.521,3.538-2.281,6.287-2.281
		c2.758,0,4.848,0.755,6.27,2.264C181.516,34.605,182.228,36.821,182.228,39.745z M170.305,39.745c0,3.349,1.165,5.025,3.496,5.025
		c1.185,0,2.063-0.406,2.637-1.221s0.859-2.082,0.859-3.804c0-1.73-0.29-3.009-0.871-3.834c-0.581-0.826-1.448-1.239-2.602-1.239
		C171.478,34.671,170.305,36.363,170.305,39.745z"/>
	<path fill="#CDB79A" d="M200.063,39.401c0,2.892-0.796,5.119-2.388,6.683c-1.593,1.564-3.83,2.348-6.714,2.348h-5.606V31.104h5.997
		c2.781,0,4.929,0.712,6.441,2.134S200.063,36.714,200.063,39.401z M195.204,39.567c0-1.589-0.313-2.766-0.941-3.532
		c-0.629-0.767-1.582-1.149-2.862-1.149h-1.363v9.707h1.043c1.422,0,2.465-0.412,3.129-1.238S195.204,41.266,195.204,39.567z"/>
	<path fill="#CDB79A" d="M213.457,48.432h-10.288V31.104h10.288v3.758h-5.606v2.726h5.191v3.756h-5.191v3.271h5.606V48.432z"/>
	<path fill="#CDB79A" d="M232.099,48.432h-5.417l-3.377-5.416l-3.343,5.416h-5.297l5.747-8.865l-5.404-8.463h5.191l3.129,5.357
		l3.01-5.357h5.346l-5.487,8.83L232.099,48.432z"/>
</g>
</svg>
